:SAMPLES-PER-SECOND 30
:FULLY-SPECIFIED
:DEGREES
878
root  82.1145 38.5779 5.92817 -154.682 -87.7633 156.29
RightUpLeg  -5.17658 -2.88516 -1.09542
RightLeg  17.9237 -0.262773 -0.367429
RightFoot  -14.8413 -0.11495 -0.480424
RightToes  -9.31324e-010 0 -3.6325e-017
Spine  4.26112 -0.00830604 2.31687
Spine1  6.08721 0.788905 -2.9421
HEad  -10.9167 30.6016 -12.1392
LeftShoulder1  -0.534681 4.8703 -32.9531
LeftArm  1.99096 10.1237 -40.668
LeftForeArm  19.6412 -20.4048 -4.78355
LeftHand  -0.027083 6.06436 1.01733
RightShoulder  -0.796449 -5.69689 29.6827
RightArm  18.9566 -7.37747 45.1383
RightForeArm  6.86585 16.1288 5.72138
RightHand  -0.0415374 6.33779 -0.752729
LeftUpLeg  1.24877 8.99704 1.37681
LeftLeg  14.0254 12.7592 3.47011
LeftFoot  -14.8771 -0.0669466 -5.01289
LeftToes  8.61288e-010 -5.99147e-011 2.1039e-011
879
root  81.98 38.411 5.736 -178.38 -87.1137 179.235
RightUpLeg  -4.54592 -2.50276 -0.0366549
RightLeg  18.7247 0.203174 -0.254685
RightFoot  -15.8035 -0.126598 -0.499535
RightToes  -9.31324e-010 0 -3.6325e-017
Spine  5.30931 0.2978 3.9234
Spine1  6.33483 1.2444 -2.68976
HEad  -9.34405 28.307 -11.5089
LeftShoulder1  -0.44144 4.64627 -32.4984
LeftArm  1.96839 9.02548 -40.576
LeftForeArm  21.0201 -27.992 -4.7545
LeftHand  -0.010727 6.62089 2.09817
RightShoulder  -0.792437 -5.68572 29.6821
RightArm  16.8352 -6.2443 45.6193
RightForeArm  4.72743 16.1967 5.51928
RightHand  -0.0198403 6.55211 -0.534358
LeftUpLeg  -0.179833 10.5438 2.75043
LeftLeg  19.2262 11.3016 4.70553
LeftFoot  -15.3957 -0.128786 -6.24691
LeftToes  8.61288e-010 -5.99147e-011 2.1039e-011
880
root  81.8349 38.2423 5.63897 175.285 -87.759 -174.667
RightUpLeg  -4.53829 -4.14295 0.25013
RightLeg  20.0107 0.99906 0.056321
RightFoot  -16.9296 -0.148908 -0.706423
RightToes  -9.31324e-010 0 -3.6325e-017
Spine  5.78472 0.306126 5.18805
Spine1  6.61267 1.32007 -1.93193
HEad  -8.13908 24.7431 -10.9606
LeftShoulder1  -0.489108 4.75911 -32.8059
LeftArm  -1.22694 7.71616 -40.5692
LeftForeArm  25.4104 -35.0235 -6.36387
LeftHand  -0.0152827 6.01988 3.01562
RightShoulder  -0.809576 -5.73114 29.7115
RightArm  15.6767 -4.84876 45.8035
RightForeArm  2.21682 16.0502 5.52908
RightHand  -0.126768 6.6611 -1.56795
LeftUpLeg  -3.68151 8.89205 3.25905
LeftLeg  26.8948 10.919 6.29246
LeftFoot  -14.4579 -0.134221 -8.61198
LeftToes  8.61288e-010 -5.99147e-011 2.1039e-011
881
root  81.6295 38.1045 5.52683 -179.676 -87.9018 -179.793
RightUpLeg  -4.77621 -3.99837 0.219792
RightLeg  21.5334 0.710997 -0.0644945
RightFoot  -18.0335 -0.165792 -0.750328
RightToes  -9.31324e-010 0 -3.6325e-017
Spine  6.25766 0.632343 6.04268
Spine1  6.39464 1.82994 -1.8038
HEad  -6.63796 21.4749 -10.2626
LeftShoulder1  -0.389446 4.51783 -32.2771
LeftArm  -3.94238 7.69824 -41.4818
LeftForeArm  28.4437 -41.4463 -8.02752
LeftHand  -0.0732629 3.74267 4.07065
RightShoulder  -0.8609 -5.84915 30.0963
RightArm  16.3344 -3.28217 45.8406
RightForeArm  1.2601 16.249 5.60733
RightHand  -0.136471 6.59865 -1.67417
LeftUpLeg  -7.91784 7.98332 3.25708
LeftLeg  35.1381 9.76868 7.67401
LeftFoot  -11.1958 0.0204489 -8.54582
LeftToes  8.61288e-010 -5.99147e-011 2.1039e-011
882
root  81.3664 38.0466 5.4492 -174.686 -88.5763 174.793
RightUpLeg  -3.87167 -4.4914 0.122678
RightLeg  21.7428 0.545698 -0.195501
RightFoot  -18.7295 -0.172989 -0.717662
RightToes  -9.31324e-010 0 -3.6325e-017
Spine  7.32057 0.712354 7.08758
Spine1  5.84112 2.11365 -2.03029
HEad  -5.37346 18.2293 -9.91573
LeftShoulder1  -0.360934 4.44663 -32.15
LeftArm  -4.85017 7.87838 -41.8935
LeftForeArm  29.7878 -47.403 -10.007
LeftHand  -0.0985922 3.0938 4.3063
RightShoulder  -0.820169 -5.75588 29.7946
RightArm  17.9653 -2.17198 46.3558
RightForeArm  0.472268 17.821 5.37945
RightHand  -0.152692 5.90459 -1.90223
LeftUpLeg  -12.2682 6.66311 3.02079
LeftLeg  42.4393 7.37373 7.48659
LeftFoot  -6.38706 0.173201 -2.50843
LeftToes  8.61288e-010 -5.99147e-011 2.1039e-011
883
root  81.0315 37.9835 5.39861 -152.627 -88.9889 152.528
RightUpLeg  -3.11797 -5.174 -0.176985
RightLeg  22.0077 0.671241 -0.277639
RightFoot  -19.5007 -0.178062 -0.646922
RightToes  -9.31324e-010 0 -3.6325e-017
Spine  7.76799 0.754456 8.148
Spine1  5.69132 2.39803 -2.38761
HEad  -4.34643 14.9821 -9.67924
LeftShoulder1  -0.382444 4.50292 -32.1432
LeftArm  -5.17147 7.87235 -42.2005
LeftForeArm  32.255 -52.1593 -11.8692
LeftHand  -0.120701 2.88381 4.99772
RightShoulder  -0.832248 -5.79112 29.7686
RightArm  18.7588 -0.754643 46.8099
RightForeArm  -0.31727 19.4726 5.12478
RightHand  -0.0855044 6.57563 -1.1712
LeftUpLeg  -15.8782 4.9617 2.53862
LeftLeg  45.9468 2.55643 3.26472
LeftFoot  -6.73842 0.204336 -4.15646
LeftToes  8.61288e-010 -5.99147e-011 2.1039e-011
